<?xml version="1.0" encoding="UTF-8" standalone="no"?>
<!DOCTYPE svg PUBLIC "-//W3C//DTD SVG 1.1//EN" "http://www.w3.org/Graphics/SVG/1.1/DTD/svg11.dtd">
<svg width="100%" height="100%" viewBox="0 0 1277 415" version="1.1" xmlns="http://www.w3.org/2000/svg" xmlns:xlink="http://www.w3.org/1999/xlink" xml:space="preserve" xmlns:serif="http://www.serif.com/" style="fill-rule:evenodd;clip-rule:evenodd;stroke-linejoin:round;stroke-miterlimit:2;">
    <g transform="matrix(2.08518,0,0,2.08518,-784.945,-4302.3)">
        <text x="376.608px" y="2213.97px" style="font-family:'Wallington-Pro', 'Wallington';font-size:150px;fill:rgb(182,30,53);stroke:rgb(35,31,32);stroke-width:0.48px;">F</text>
        <text x="444.108px" y="2188.97px" style="font-family:'Wallington-Pro', 'Wallington';font-size:83.333px;fill:rgb(182,30,53);stroke:rgb(35,31,32);stroke-width:0.48px;">O<tspan x="502.858px " y="2188.97px ">X</tspan></text>
        <text x="564.025px" y="2172.3px" style="font-family:'Wallington-Pro', 'Wallington';font-size:58.333px;fill:rgb(182,30,53);stroke:rgb(35,31,32);stroke-width:0.48px;">&amp;</text>
        <text x="619.85px" y="2213.97px" style="font-family:'Wallington-Pro', 'Wallington';font-size:150px;fill:rgb(182,30,53);stroke:rgb(35,31,32);stroke-width:0.48px;">H</text>
        <text x="712.1px" y="2188.97px" style="font-family:'Wallington-Pro', 'Wallington';font-size:83.333px;fill:rgb(182,30,53);stroke:rgb(35,31,32);stroke-width:0.48px;">O<tspan x="777.516px " y="2188.97px ">U</tspan>ND<tspan x="946.016px " y="2188.97px ">S</tspan></text>
    </g>
    <g transform="matrix(2.08518,0,0,2.08518,-909.641,-3352.95)">
        <text x="577.563px" y="1806.08px" style="font-family:'GillSans-Light', 'Gill Sans', sans-serif;font-weight:300;font-size:41.667px;fill:rgb(9,1,2);stroke:rgb(35,31,32);stroke-width:0.48px;">D<tspan x="620.906px 661.197px 693.249px 726.175px 768.644px 815.445px 857.039px 889.09px " y="1806.08px 1806.08px 1806.08px 1806.08px 1806.08px 1806.08px 1806.08px 1806.08px ">ALEHOUSE</tspan></text>
    </g>
    <g transform="matrix(0.398723,0,0,0.464996,763.99,-483.37)">
        <path d="M629.644,1868.91L1219.29,1868.91" style="fill:none;stroke:rgb(183,31,52);stroke-width:9.62px;stroke-linecap:round;stroke-miterlimit:1.5;"/>
    </g>
    <g transform="matrix(0.398723,0,0,0.464996,-230.414,-483.37)">
        <path d="M629.644,1868.91L1219.29,1868.91" style="fill:none;stroke:rgb(183,31,52);stroke-width:9.62px;stroke-linecap:round;stroke-miterlimit:1.5;"/>
    </g>
</svg>
