<?xml version="1.0" encoding="UTF-8" standalone="no"?>
<!DOCTYPE svg PUBLIC "-//W3C//DTD SVG 1.1//EN" "http://www.w3.org/Graphics/SVG/1.1/DTD/svg11.dtd">
<svg width="100%" height="100%" viewBox="0 0 625 619" version="1.1" xmlns="http://www.w3.org/2000/svg" xmlns:xlink="http://www.w3.org/1999/xlink" xml:space="preserve" xmlns:serif="http://www.serif.com/" style="fill-rule:evenodd;clip-rule:evenodd;stroke-linecap:round;stroke-linejoin:round;stroke-miterlimit:1.5;">
    <g transform="matrix(2.00061,0,0,1.97867,0,6.83897e-14)">
        <clipPath id="_clip1">
            <rect x="0" y="-0" width="312" height="312.483"/>
        </clipPath>
        <g clip-path="url(#_clip1)">
            <rect x="0" y="0" width="312" height="312" style="fill:rgb(14,121,235);stroke:rgb(22,9,9);stroke-width:0.5px;"/>
        </g>
    </g>
    <g id="Layer1" transform="matrix(2.00061,0,0,1.98243,0,0)">
        <g transform="matrix(1,0,0,1.01828,0,0.847272)">
            <clipPath id="_clip2">
                <rect x="0" y="32.259" width="312" height="273.308"/>
            </clipPath>
            <g clip-path="url(#_clip2)">
                <g>
                    <path d="M312,75.394L312,308.039L0,312L0,40.434L28.346,60.4L36.458,66.191L44.852,63.257L55.276,65.219L57.211,73.23L58.79,79.27L65.205,82.759L74.045,80.637L84.863,76.489L90.342,71.363L106.034,74.886L111.511,76.314L117.262,71.966L125.914,70.165L132.795,74.044L142.697,56.576C142.697,56.576 153.181,45.169 160.017,57.153C166.854,69.138 168.511,64.659 168.511,64.659C168.511,64.659 168.73,80.018 185.774,65.373C202.817,50.728 209.057,44.206 209.057,44.206L217.682,36L229.525,33.504L241.353,34.971L247.946,32.259L255.157,35.255L262.031,35.85L267.627,39.262C267.627,39.262 236.514,37.533 232.321,44.521C228.127,51.51 235.792,55.8 235.792,55.8L244.462,64.765L243.122,76.003L254.782,77.295L260.054,67.658L256.124,53.642L250.611,51.58L255.813,45.041L259.761,47.227L260.729,51.869L262.685,59.524L264.305,67.294L268.8,75.412L278.176,75.429L293.087,68.967L299.713,63.275L312,75.394Z" style="fill:rgb(0,255,149);"/>
                    <g transform="matrix(0.499849,-0,-0,0.495375,0,-0.832062)">
                        <path d="M625.683,156.862L624.189,153.875L622.695,156.862C623.442,156.116 624.936,156.116 625.683,156.862Z" style="fill:rgb(21,12,12);"/>
                        <path d="M624.189,156.265L624.189,623.508L0,631.505L0,83.303L56.71,123.607L72.939,135.297L89.731,129.375L110.585,133.335L114.457,149.507L117.616,161.7L130.45,168.744L148.135,164.46L169.778,156.086L180.74,145.738L212.132,152.851L223.09,155.732L234.594,146.956L251.904,143.321L265.67,151.151L285.481,115.889C285.481,115.889 306.454,92.86 320.131,117.054C333.809,141.247 337.125,132.204 337.125,132.204C337.125,132.204 337.563,163.21 371.66,133.647C405.758,104.083 418.242,90.918 418.242,90.918L435.496,74.351L459.189,69.313L482.852,72.274L496.041,66.8L510.469,72.848L524.221,74.05L535.416,80.936C535.416,80.936 473.171,77.447 464.782,91.554C456.392,105.661 471.727,114.321 471.727,114.321L489.073,132.42L486.392,155.105L509.719,157.714L520.265,138.26L512.403,109.966L501.375,105.803L511.781,92.603L519.68,97.015L521.616,106.387L525.528,121.84L528.77,137.524L537.762,153.912L556.521,153.946L586.351,140.902L599.607,129.412L624.189,153.875" style="fill:none;stroke:rgb(21,12,12);stroke-width:1px;"/>
                    </g>
                </g>
            </g>
        </g>
        <g id="staithes-beck1" serif:id="staithes beck1" transform="matrix(1,0,0,1.01314,0,1.01314)">
            <path d="M-8.853,224.005L0,206.275C0,206.275 6.328,206.893 6.328,206.893C6.328,206.893 9.194,214.716 9.194,214.716L13.59,220.971L28.346,215.414L32.752,220.982L42.195,225.317L51.336,232.163L59.648,223.2L70.721,230.932L86.94,227.943L100.132,238.354C100.132,238.354 106.128,246.141 124.023,233.379C141.918,220.618 129.29,229.856 129.29,229.856C129.29,229.856 134.592,226.269 136.863,230.602C139.133,234.934 143.887,237.437 143.887,237.437L147.427,234.817L147.357,228.293L145.227,221.214L152.57,207.456L160.936,192.354L171.555,181.063L172.512,168.801L166.29,156L160.237,139.526L184.811,156C184.811,156 190.967,160.737 191.648,156C192.329,151.263 185.453,133.803 185.453,133.803L187.761,115.56C187.761,115.56 188.336,111.961 198.883,103.68C209.431,95.399 203.33,95.074 203.33,92.61L203.33,80.417L206.115,71.136L218.086,60.462L230.302,61.102" style="fill-opacity:0;stroke:rgb(12,119,222);stroke-width:1.99px;"/>
        </g>
        <g transform="matrix(1,0,0,1.01314,0,1.01314)">
            <path d="M230.302,61.102L245.95,58.805L235.929,49.638L230.302,61.102Z" style="fill:rgb(10,117,217);stroke:rgb(8,114,217);stroke-width:1.99px;"/>
        </g>
        <g transform="matrix(1,0,0,1.01314,0,1.01314)">
            <clipPath id="_clip3">
                <rect x="20.768" y="228.464" width="47.487" height="77.504"/>
            </clipPath>
            <g clip-path="url(#_clip3)">
                <path d="M20.768,312L22.648,305.328L33.42,303.673L39.014,296.531L46.522,287.657L44.008,276.919L41.722,268.225L48.587,259.045L49.415,247.525L55.655,237.847L64.432,234.31L68.255,228.464" style="fill:none;stroke:rgb(12,119,222);stroke-width:1.99px;"/>
            </g>
        </g>
        <g id="seven.afdesign" transform="matrix(0.455899,0,0,0.461888,160.961,232.401)">
            <g transform="matrix(1,0,0,1,-10.881,-10.881)">
                <clipPath id="_clip4">
                    <rect x="0" y="0" width="21.762" height="21.762"/>
                </clipPath>
                <g clip-path="url(#_clip4)">
                    <g transform="matrix(1,0,0,1,-53.1749,-111.265)">
                        <circle cx="64.056" cy="122.146" r="10.881" style="fill:rgb(10,13,16);"/>
                    </g>
                    <g transform="matrix(1,0,0,1,-50.4436,-159.906)">
                        <text x="57.402px" y="175.494px" style="font-family:'Arial-Black', 'Arial Black', sans-serif;font-weight:900;font-size:12px;fill:rgb(254,249,250);">7</text>
                    </g>
                </g>
            </g>
        </g>
        <g id="four.afdesign" transform="matrix(0.455899,0,0,0.461888,145.827,68.5235)">
            <g transform="matrix(1,0,0,1,-10.881,-10.881)">
                <clipPath id="_clip5">
                    <rect x="0" y="0" width="21.762" height="21.762"/>
                </clipPath>
                <g clip-path="url(#_clip5)">
                    <g transform="matrix(1,0,0,1,-53.1749,-111.265)">
                        <circle cx="64.056" cy="122.146" r="10.881" style="fill:rgb(10,13,16);"/>
                    </g>
                    <g transform="matrix(1,0,0,1,-50.4436,-159.906)">
                        <text x="57.402px" y="175.494px" style="font-family:'Arial-Black', 'Arial Black', sans-serif;font-weight:900;font-size:12px;fill:rgb(254,249,250);">4</text>
                    </g>
                </g>
            </g>
        </g>
        <g id="five.afdesign" transform="matrix(0.455899,0,0,0.461888,20.6959,123.659)">
            <g transform="matrix(1,0,0,1,-10.881,-10.881)">
                <g transform="matrix(1,0,0,1,-53.1749,-111.265)">
                    <circle cx="64.056" cy="122.146" r="10.881" style="fill:rgb(10,13,16);"/>
                </g>
                <g transform="matrix(1,0,0,1,-50.4436,-159.906)">
                    <text x="57.402px" y="175.494px" style="font-family:'Arial-Black', 'Arial Black', sans-serif;font-weight:900;font-size:12px;fill:rgb(254,249,250);">5</text>
                </g>
            </g>
        </g>
        <g id="six.afdesign" transform="matrix(0.455899,0,0,0.461888,107.197,238.843)">
            <g transform="matrix(1,0,0,1,-10.881,-10.881)">
                <clipPath id="_clip6">
                    <rect x="0" y="0" width="21.762" height="21.762"/>
                </clipPath>
                <g clip-path="url(#_clip6)">
                    <g transform="matrix(1,0,0,1,-53.1749,-111.265)">
                        <circle cx="64.056" cy="122.146" r="10.881" style="fill:rgb(10,13,16);"/>
                    </g>
                    <g transform="matrix(1,0,0,1,-50.4436,-159.906)">
                        <text x="57.402px" y="175.494px" style="font-family:'Arial-Black', 'Arial Black', sans-serif;font-weight:900;font-size:12px;fill:rgb(254,249,250);">6</text>
                    </g>
                </g>
            </g>
        </g>
    </g>
    <g transform="matrix(1.7694,0,0,1.30149,44.3729,105.26)">
        <rect x="204.542" y="134.531" width="39.226" height="21.469" style="fill:rgb(243,248,237);stroke:rgb(247,242,242);stroke-width:2.56px;"/>
    </g>
    <g transform="matrix(1.81604,0,0,1.4203,508.086,9.72101)">
        <path d="M-48.86,199.619L-48.025,199.89C-48.2,200.77 -48.515,201.441 -48.969,201.903C-49.424,202.365 -49.98,202.596 -50.637,202.596C-51.317,202.596 -51.87,202.419 -52.296,202.063C-52.722,201.708 -53.046,201.193 -53.268,200.519C-53.491,199.846 -53.602,199.122 -53.602,198.349C-53.602,197.505 -53.476,196.77 -53.225,196.142C-52.974,195.514 -52.617,195.037 -52.154,194.711C-51.69,194.385 -51.181,194.222 -50.624,194.222C-49.993,194.222 -49.462,194.428 -49.032,194.841C-48.601,195.253 -48.302,195.833 -48.132,196.581L-48.954,196.829C-49.101,196.24 -49.313,195.811 -49.591,195.542C-49.869,195.274 -50.219,195.139 -50.641,195.139C-51.126,195.139 -51.531,195.288 -51.857,195.587C-52.182,195.885 -52.411,196.285 -52.543,196.788C-52.675,197.291 -52.741,197.809 -52.741,198.343C-52.741,199.032 -52.663,199.633 -52.507,200.147C-52.35,200.66 -52.107,201.044 -51.777,201.298C-51.447,201.552 -51.09,201.679 -50.706,201.679C-50.238,201.679 -49.842,201.506 -49.518,201.16C-49.194,200.814 -48.974,200.3 -48.86,199.619Z" style="fill:rgb(35,31,32);fill-rule:nonzero;"/>
        <path d="M-44.113,201.735C-44.4,202.048 -44.676,202.269 -44.942,202.398C-45.207,202.526 -45.492,202.591 -45.796,202.591C-46.298,202.591 -46.684,202.433 -46.953,202.119C-47.223,201.804 -47.358,201.401 -47.358,200.912C-47.358,200.624 -47.307,200.362 -47.205,200.124C-47.103,199.887 -46.97,199.696 -46.805,199.553C-46.64,199.409 -46.454,199.3 -46.248,199.227C-46.096,199.175 -45.866,199.126 -45.559,199.078C-44.934,198.982 -44.473,198.868 -44.178,198.735C-44.175,198.599 -44.173,198.512 -44.173,198.476C-44.173,198.071 -44.247,197.785 -44.393,197.619C-44.591,197.395 -44.885,197.282 -45.275,197.282C-45.639,197.282 -45.908,197.364 -46.082,197.528C-46.255,197.692 -46.384,197.982 -46.467,198.398L-47.224,198.266C-47.156,197.85 -47.042,197.514 -46.884,197.258C-46.727,197.002 -46.499,196.805 -46.2,196.667C-45.902,196.528 -45.556,196.459 -45.163,196.459C-44.773,196.459 -44.456,196.518 -44.212,196.636C-43.968,196.754 -43.789,196.902 -43.674,197.081C-43.559,197.259 -43.479,197.485 -43.433,197.757C-43.407,197.927 -43.395,198.233 -43.395,198.674L-43.395,200C-43.395,200.925 -43.378,201.509 -43.345,201.754C-43.312,201.999 -43.247,202.234 -43.149,202.458L-43.958,202.458C-44.039,202.252 -44.09,202.011 -44.113,201.735ZM-44.178,199.514C-44.459,199.661 -44.881,199.787 -45.443,199.89C-45.761,199.949 -45.987,200.015 -46.118,200.089C-46.25,200.162 -46.352,200.27 -46.424,200.412C-46.496,200.554 -46.532,200.711 -46.532,200.884C-46.532,201.149 -46.453,201.37 -46.297,201.547C-46.141,201.724 -45.912,201.812 -45.611,201.812C-45.312,201.812 -45.047,201.728 -44.815,201.561C-44.582,201.393 -44.412,201.164 -44.303,200.873C-44.219,200.648 -44.178,200.317 -44.178,199.879L-44.178,199.514Z" style="fill:rgb(35,31,32);fill-rule:nonzero;"/>
        <path d="M-42.203,202.458L-42.203,196.592L-41.505,196.592L-41.505,197.481C-41.328,197.065 -41.163,196.791 -41.013,196.658C-40.862,196.526 -40.696,196.459 -40.516,196.459C-40.255,196.459 -39.989,196.566 -39.72,196.78L-39.986,197.702C-40.176,197.559 -40.365,197.487 -40.554,197.487C-40.724,197.487 -40.876,197.552 -41.011,197.683C-41.145,197.814 -41.241,197.995 -41.299,198.227C-41.385,198.581 -41.428,198.967 -41.428,199.387L-41.428,202.458L-42.203,202.458Z" style="fill:rgb(35,31,32);fill-rule:nonzero;"/>
        <path d="M-36.712,202.458L-36.712,194.36L-34.332,194.36C-33.913,194.36 -33.593,194.386 -33.372,194.438C-33.062,194.504 -32.803,194.63 -32.593,194.816C-32.384,195.002 -32.215,195.263 -32.088,195.598C-31.96,195.933 -31.896,196.301 -31.896,196.702C-31.896,197.391 -32.067,197.974 -32.408,198.451C-32.75,198.928 -33.367,199.166 -34.259,199.166L-35.877,199.166L-35.877,202.458L-36.712,202.458ZM-35.877,198.21L-34.246,198.21C-33.707,198.21 -33.324,198.082 -33.097,197.824C-32.87,197.566 -32.757,197.203 -32.757,196.736C-32.757,196.397 -32.824,196.107 -32.957,195.866C-33.09,195.624 -33.266,195.465 -33.484,195.388C-33.625,195.34 -33.884,195.316 -34.263,195.316L-35.877,195.316L-35.877,198.21Z" style="fill:rgb(35,31,32);fill-rule:nonzero;"/>
        <path d="M-27.95,201.735C-28.237,202.048 -28.513,202.269 -28.779,202.398C-29.044,202.526 -29.329,202.591 -29.633,202.591C-30.135,202.591 -30.521,202.433 -30.79,202.119C-31.06,201.804 -31.195,201.401 -31.195,200.912C-31.195,200.624 -31.144,200.362 -31.042,200.124C-30.94,199.887 -30.807,199.696 -30.642,199.553C-30.477,199.409 -30.291,199.3 -30.085,199.227C-29.933,199.175 -29.703,199.126 -29.396,199.078C-28.771,198.982 -28.31,198.868 -28.015,198.735C-28.012,198.599 -28.01,198.512 -28.01,198.476C-28.01,198.071 -28.084,197.785 -28.23,197.619C-28.428,197.395 -28.722,197.282 -29.112,197.282C-29.476,197.282 -29.745,197.364 -29.919,197.528C-30.093,197.692 -30.221,197.982 -30.304,198.398L-31.061,198.266C-30.993,197.85 -30.879,197.514 -30.721,197.258C-30.564,197.002 -30.336,196.805 -30.037,196.667C-29.739,196.528 -29.393,196.459 -29,196.459C-28.61,196.459 -28.293,196.518 -28.049,196.636C-27.805,196.754 -27.626,196.902 -27.511,197.081C-27.397,197.259 -27.316,197.485 -27.27,197.757C-27.244,197.927 -27.232,198.233 -27.232,198.674L-27.232,200C-27.232,200.925 -27.215,201.509 -27.182,201.754C-27.149,201.999 -27.084,202.234 -26.986,202.458L-27.795,202.458C-27.876,202.252 -27.927,202.011 -27.95,201.735ZM-28.015,199.514C-28.296,199.661 -28.718,199.787 -29.28,199.89C-29.598,199.949 -29.824,200.015 -29.956,200.089C-30.087,200.162 -30.189,200.27 -30.261,200.412C-30.333,200.554 -30.369,200.711 -30.369,200.884C-30.369,201.149 -30.29,201.37 -30.134,201.547C-29.978,201.724 -29.749,201.812 -29.448,201.812C-29.149,201.812 -28.884,201.728 -28.652,201.561C-28.419,201.393 -28.249,201.164 -28.14,200.873C-28.056,200.648 -28.015,200.317 -28.015,199.879L-28.015,199.514Z" style="fill:rgb(35,31,32);fill-rule:nonzero;"/>
        <path d="M-26.04,202.458L-26.04,196.592L-25.342,196.592L-25.342,197.481C-25.165,197.065 -25,196.791 -24.85,196.658C-24.699,196.526 -24.533,196.459 -24.353,196.459C-24.092,196.459 -23.826,196.566 -23.557,196.78L-23.823,197.702C-24.013,197.559 -24.202,197.487 -24.391,197.487C-24.561,197.487 -24.713,197.552 -24.848,197.683C-24.982,197.814 -25.079,197.995 -25.136,198.227C-25.222,198.581 -25.265,198.967 -25.265,199.387L-25.265,202.458L-26.04,202.458Z" style="fill:rgb(35,31,32);fill-rule:nonzero;"/>
        <path d="M-23.092,202.458L-23.092,194.36L-22.317,194.36L-22.317,198.978L-20.484,196.592L-19.481,196.592L-21.229,198.768L-19.305,202.458L-20.26,202.458L-21.771,199.459L-22.317,200.133L-22.317,202.458L-23.092,202.458Z" style="fill:rgb(35,31,32);fill-rule:nonzero;"/>
    </g>
    <g transform="matrix(2.00061,0,0,2.00848,-109.643,-55.8407)">
        <path d="M290.556,227.805L301.78,236.031L297.493,249.341L283.62,249.341L279.332,236.031L290.556,227.805Z" style="fill:rgb(243,248,237);stroke:rgb(247,242,242);stroke-width:1.99px;"/>
    </g>
    <g transform="matrix(2.00061,0,0,2.00848,-493.941,-233.344)">
        <path d="M290.556,227.805L301.78,236.031L297.493,249.341L283.62,249.341L279.332,236.031L290.556,227.805Z" style="fill:rgb(243,248,237);stroke:rgb(247,242,242);stroke-width:1.99px;"/>
    </g>
    <g transform="matrix(2.00061,0,0,2.00848,-308.877,-43.4529)">
        <path d="M290.556,227.805L301.78,236.031L297.493,249.341L283.62,249.341L279.332,236.031L290.556,227.805Z" style="fill:rgb(243,248,237);stroke:rgb(247,242,242);stroke-width:1.99px;"/>
    </g>
    <g transform="matrix(1.66026,0,0,1.29847,542.123,168.89)">
        <path d="M-49.507,198.961L-48.777,199.198C-48.93,199.968 -49.205,200.555 -49.603,200.96C-50.001,201.364 -50.488,201.566 -51.062,201.566C-51.657,201.566 -52.141,201.411 -52.514,201.1C-52.887,200.789 -53.17,200.339 -53.365,199.749C-53.559,199.159 -53.657,198.526 -53.657,197.849C-53.657,197.111 -53.547,196.468 -53.327,195.918C-53.108,195.369 -52.795,194.952 -52.39,194.667C-51.984,194.381 -51.538,194.239 -51.051,194.239C-50.499,194.239 -50.034,194.419 -49.658,194.78C-49.281,195.141 -49.019,195.649 -48.871,196.303L-49.59,196.52C-49.718,196.005 -49.904,195.629 -50.147,195.394C-50.391,195.159 -50.697,195.041 -51.066,195.041C-51.49,195.041 -51.845,195.172 -52.13,195.433C-52.415,195.694 -52.615,196.044 -52.73,196.484C-52.846,196.924 -52.904,197.377 -52.904,197.844C-52.904,198.447 -52.835,198.973 -52.698,199.423C-52.562,199.872 -52.349,200.208 -52.06,200.43C-51.772,200.653 -51.459,200.764 -51.123,200.764C-50.713,200.764 -50.367,200.612 -50.083,200.31C-49.8,200.007 -49.608,199.557 -49.507,198.961Z" style="fill:rgb(35,31,32);fill-rule:nonzero;"/>
        <path d="M-48.216,198.879C-48.216,197.928 -48.01,197.224 -47.598,196.767C-47.254,196.386 -46.835,196.196 -46.341,196.196C-45.791,196.196 -45.342,196.427 -44.993,196.89C-44.644,197.352 -44.469,197.991 -44.469,198.806C-44.469,199.467 -44.546,199.986 -44.701,200.365C-44.855,200.744 -45.08,201.038 -45.375,201.247C-45.67,201.457 -45.992,201.561 -46.341,201.561C-46.9,201.561 -47.353,201.331 -47.698,200.87C-48.043,200.409 -48.216,199.746 -48.216,198.879ZM-47.519,198.879C-47.519,199.536 -47.407,200.028 -47.184,200.355C-46.961,200.683 -46.68,200.846 -46.341,200.846C-46.004,200.846 -45.724,200.682 -45.501,200.353C-45.278,200.024 -45.166,199.523 -45.166,198.85C-45.166,198.215 -45.278,197.734 -45.503,197.407C-45.728,197.08 -46.007,196.916 -46.341,196.916C-46.68,196.916 -46.961,197.079 -47.184,197.405C-47.407,197.73 -47.519,198.221 -47.519,198.879Z" style="fill:rgb(35,31,32);fill-rule:nonzero;"/>
        <rect x="-43.938" y="198.444" width="2.082" height="0.875" style="fill:rgb(35,31,32);fill-rule:nonzero;"/>
        <path d="M-41.242,197.994C-41.242,196.818 -40.996,195.897 -40.504,195.232C-40.012,194.567 -39.377,194.234 -38.599,194.234C-38.09,194.234 -37.63,194.39 -37.221,194.703C-36.812,195.015 -36.5,195.451 -36.285,196.01C-36.071,196.569 -35.963,197.203 -35.963,197.912C-35.963,198.631 -36.076,199.274 -36.302,199.841C-36.528,200.408 -36.848,200.837 -37.262,201.129C-37.677,201.42 -38.123,201.566 -38.603,201.566C-39.122,201.566 -39.587,201.405 -39.996,201.083C-40.405,200.761 -40.715,200.321 -40.926,199.763C-41.137,199.206 -41.242,198.616 -41.242,197.994ZM-40.489,198.009C-40.489,198.863 -40.31,199.535 -39.953,200.027C-39.595,200.518 -39.146,200.764 -38.607,200.764C-38.057,200.764 -37.604,200.516 -37.249,200.02C-36.894,199.523 -36.716,198.819 -36.716,197.907C-36.716,197.331 -36.792,196.827 -36.944,196.397C-37.096,195.967 -37.318,195.633 -37.611,195.396C-37.903,195.16 -38.231,195.041 -38.595,195.041C-39.112,195.041 -39.557,195.269 -39.93,195.725C-40.303,196.181 -40.489,196.942 -40.489,198.009Z" style="fill:rgb(35,31,32);fill-rule:nonzero;"/>
        <path d="M-35.109,203.413L-35.109,196.312L-34.491,196.312L-34.491,196.979C-34.346,196.718 -34.181,196.523 -33.998,196.392C-33.815,196.262 -33.592,196.196 -33.331,196.196C-32.99,196.196 -32.689,196.309 -32.428,196.535C-32.167,196.76 -31.97,197.078 -31.837,197.489C-31.704,197.9 -31.637,198.35 -31.637,198.84C-31.637,199.365 -31.71,199.838 -31.857,200.259C-32.004,200.679 -32.217,201.002 -32.497,201.225C-32.777,201.449 -33.072,201.561 -33.38,201.561C-33.606,201.561 -33.809,201.5 -33.988,201.378C-34.168,201.255 -34.315,201.101 -34.431,200.914L-34.431,203.413L-35.109,203.413ZM-34.495,198.908C-34.495,199.568 -34.391,200.057 -34.182,200.372C-33.974,200.688 -33.722,200.846 -33.426,200.846C-33.124,200.846 -32.866,200.683 -32.652,200.355C-32.437,200.028 -32.33,199.522 -32.33,198.835C-32.33,198.181 -32.435,197.691 -32.644,197.366C-32.854,197.041 -33.104,196.878 -33.395,196.878C-33.684,196.878 -33.94,197.051 -34.162,197.397C-34.384,197.744 -34.495,198.247 -34.495,198.908Z" style="fill:rgb(35,31,32);fill-rule:nonzero;"/>
    </g>
    <g transform="matrix(2.00061,0,0,2.00848,0,2.00848)">
        <path d="M208.454,99.23L216.705,91.542L222.416,80.75L228.444,77.715L232.08,78.037" style="fill:none;"/>
        <path d="M208.454,99.23L216.705,91.542L222.416,80.75L228.444,77.715L232.08,78.037" style="fill:none;stroke:rgb(247,242,242);stroke-width:1.99px;"/>
    </g>
    <g transform="matrix(2.00061,0,0,2.00848,0,2.00848)">
        <path d="M199.867,139.68L202.362,116.605L205.393,104.502L206.426,91.824L213.603,85.01L219.362,70.951L210.328,63.841L201.682,70.238C201.682,70.238 195.351,63.035 194.981,63.035C194.611,63.035 182.324,75.066 182.324,75.066C182.324,75.066 178.682,80.495 178.682,80.495L143.931,77.86C143.931,77.86 134.603,80.253 133.266,82.268C131.93,84.284 119.323,86.411 118.928,86.654C118.534,86.897 101.106,81.528 92.461,83.923C83.815,86.317 77.397,88.597 77.397,88.597C77.397,88.597 69.696,96.682 69.696,96.682C69.696,96.682 43.311,89.465 47.375,95.26L32.686,105.566L28.346,111.471L28.346,135.37L40.5,139.073L41.741,152.84L43.38,167.786L42.79,182.312L42.245,195.894L42.532,205.87L45.156,213.896L53.64,226.832L62.022,231.383C62.022,231.383 72.171,233.02 75.458,233.02C78.746,233.02 86.702,232.967 86.702,232.967L96.438,240.779L110.291,244.294C110.291,244.294 125.548,239.664 127.72,242.897C129.893,246.129 141.799,244.818 144.667,239.783C147.536,234.749 152.085,225.965 152.085,225.965L161.488,213.413L173.98,208.178L175.096,203.291L189.136,205.023L192.982,183.661L196,169.286L198.058,158.388L199.867,139.68Z" style="fill:none;stroke:rgb(21,10,10);stroke-width:3.97px;"/>
    </g>
    <g transform="matrix(2.00061,0,0,2.00848,0,2.00848)">
        <path d="M199.867,139.68L202.362,116.605L205.393,104.502L206.426,91.824L213.603,85.01L219.362,70.951L210.328,63.841L201.682,70.238C201.682,70.238 195.351,63.035 194.981,63.035C194.611,63.035 182.324,75.066 182.324,75.066C182.324,75.066 178.682,80.495 178.682,80.495L143.931,77.86C143.931,77.86 134.603,80.253 133.266,82.268C131.93,84.284 119.323,86.411 118.928,86.654C118.534,86.897 101.106,81.528 92.461,83.923C83.815,86.317 77.397,88.597 77.397,88.597C77.397,88.597 69.696,96.682 69.696,96.682C69.696,96.682 43.311,89.465 47.375,95.26L32.686,105.566L28.346,111.471L28.346,135.37L40.5,139.073L41.741,152.84L43.38,167.786L42.79,182.312L42.245,195.894L42.532,205.87L45.156,213.896L53.64,226.832L62.022,231.383C62.022,231.383 72.171,233.02 75.458,233.02C78.746,233.02 86.702,232.967 86.702,232.967L96.438,240.779L110.291,244.294C110.291,244.294 125.548,239.664 127.72,242.897C129.893,246.129 141.799,244.818 144.667,239.783C147.536,234.749 152.085,225.965 152.085,225.965L161.488,213.413L173.98,208.178L175.096,203.291L189.136,205.023L192.982,183.661L196,169.286L198.058,158.388L199.867,139.68Z" style="fill:none;stroke:rgb(248,241,241);stroke-width:2.98px;"/>
    </g>
    <g transform="matrix(1.23179,0,0,0.963369,126.207,46.5229)">
        <path d="M-39.125,201.445L-39.125,194.36L-36.678,194.36C-36.186,194.36 -35.812,194.423 -35.556,194.551C-35.3,194.678 -35.095,194.903 -34.942,195.225C-34.789,195.547 -34.712,195.903 -34.712,196.293C-34.712,196.796 -34.839,197.219 -35.093,197.564C-35.346,197.909 -35.738,198.128 -36.267,198.221C-36.074,198.341 -35.927,198.458 -35.827,198.574C-35.613,198.826 -35.411,199.14 -35.221,199.517L-34.26,201.445L-35.179,201.445L-35.91,199.971C-36.123,199.546 -36.299,199.22 -36.437,198.995C-36.575,198.769 -36.698,198.611 -36.808,198.521C-36.917,198.431 -37.028,198.368 -37.141,198.333C-37.224,198.31 -37.359,198.299 -37.548,198.299L-38.395,198.299L-38.395,201.445L-39.125,201.445ZM-38.395,197.487L-36.825,197.487C-36.491,197.487 -36.23,197.443 -36.041,197.354C-35.853,197.265 -35.71,197.124 -35.612,196.929C-35.514,196.734 -35.465,196.522 -35.465,196.293C-35.465,195.958 -35.56,195.682 -35.75,195.466C-35.939,195.251 -36.238,195.143 -36.648,195.143L-38.395,195.143L-38.395,197.487Z" style="fill:rgb(35,31,32);fill-rule:nonzero;"/>
        <path d="M-30.917,199.792L-30.216,199.904C-30.327,200.429 -30.531,200.836 -30.83,201.126C-31.129,201.416 -31.51,201.561 -31.975,201.561C-32.56,201.561 -33.023,201.33 -33.366,200.868C-33.709,200.405 -33.88,199.757 -33.88,198.922C-33.88,198.059 -33.707,197.389 -33.36,196.912C-33.014,196.435 -32.565,196.196 -32.012,196.196C-31.478,196.196 -31.041,196.43 -30.702,196.897C-30.363,197.364 -30.194,198.022 -30.194,198.869C-30.194,198.921 -30.195,198.998 -30.198,199.101L-33.18,199.101C-33.155,199.665 -33.03,200.097 -32.807,200.397C-32.584,200.696 -32.305,200.846 -31.971,200.846C-31.723,200.846 -31.51,200.762 -31.335,200.595C-31.159,200.427 -31.02,200.16 -30.917,199.792ZM-33.142,198.386L-30.909,198.386C-30.939,197.954 -31.025,197.63 -31.165,197.414C-31.381,197.079 -31.661,196.912 -32.005,196.912C-32.316,196.912 -32.578,197.045 -32.79,197.313C-33.002,197.58 -33.119,197.938 -33.142,198.386Z" style="fill:rgb(35,31,32);fill-rule:nonzero;"/>
        <path d="M-26.771,201.445L-26.771,200.798C-27.025,201.307 -27.397,201.561 -27.889,201.561C-28.208,201.561 -28.501,201.449 -28.769,201.223C-29.036,200.997 -29.243,200.683 -29.39,200.278C-29.537,199.874 -29.61,199.409 -29.61,198.884C-29.61,198.371 -29.544,197.907 -29.411,197.489C-29.278,197.072 -29.078,196.752 -28.812,196.53C-28.546,196.307 -28.248,196.196 -27.92,196.196C-27.679,196.196 -27.464,196.262 -27.276,196.392C-27.087,196.523 -26.934,196.693 -26.816,196.902L-26.816,194.36L-26.142,194.36L-26.142,201.445L-26.771,201.445ZM-28.914,198.884C-28.914,199.541 -28.806,200.032 -28.59,200.358C-28.374,200.683 -28.119,200.846 -27.825,200.846C-27.529,200.846 -27.278,200.691 -27.07,200.38C-26.863,200.069 -26.76,199.594 -26.76,198.956C-26.76,198.254 -26.865,197.738 -27.076,197.409C-27.287,197.081 -27.547,196.916 -27.856,196.916C-28.157,196.916 -28.408,197.074 -28.61,197.39C-28.813,197.706 -28.914,198.204 -28.914,198.884Z" style="fill:rgb(35,31,32);fill-rule:nonzero;"/>
        <path d="M-43.186,211.668L-43.186,204.582L-42.456,204.582L-42.456,207.492L-39.586,207.492L-39.586,204.582L-38.856,204.582L-38.856,211.668L-39.586,211.668L-39.586,208.328L-42.456,208.328L-42.456,211.668L-43.186,211.668Z" style="fill:rgb(35,31,32);fill-rule:nonzero;"/>
        <path d="M-37.979,209.102C-37.979,208.151 -37.773,207.447 -37.361,206.989C-37.017,206.609 -36.598,206.419 -36.104,206.419C-35.554,206.419 -35.104,206.65 -34.756,207.113C-34.407,207.575 -34.232,208.214 -34.232,209.029C-34.232,209.69 -34.309,210.209 -34.464,210.588C-34.618,210.966 -34.843,211.26 -35.138,211.47C-35.433,211.679 -35.755,211.784 -36.104,211.784C-36.663,211.784 -37.116,211.554 -37.461,211.093C-37.806,210.632 -37.979,209.968 -37.979,209.102ZM-37.282,209.102C-37.282,209.759 -37.17,210.251 -36.947,210.578C-36.724,210.905 -36.442,211.069 -36.104,211.069C-35.767,211.069 -35.487,210.904 -35.264,210.576C-35.04,210.247 -34.929,209.746 -34.929,209.073C-34.929,208.438 -35.041,207.957 -35.266,207.63C-35.49,207.303 -35.77,207.139 -36.104,207.139C-36.442,207.139 -36.724,207.302 -36.947,207.627C-37.17,207.953 -37.282,208.444 -37.282,209.102Z" style="fill:rgb(35,31,32);fill-rule:nonzero;"/>
        <path d="M-30.817,211.668L-30.817,210.914C-31.128,211.494 -31.551,211.784 -32.086,211.784C-32.322,211.784 -32.542,211.726 -32.747,211.61C-32.951,211.494 -33.103,211.348 -33.202,211.173C-33.301,210.997 -33.371,210.782 -33.411,210.527C-33.439,210.357 -33.453,210.086 -33.453,209.715L-33.453,206.535L-32.775,206.535L-32.775,209.382C-32.775,209.836 -32.761,210.142 -32.734,210.3C-32.691,210.529 -32.6,210.709 -32.462,210.839C-32.324,210.97 -32.154,211.035 -31.95,211.035C-31.747,211.035 -31.556,210.968 -31.378,210.834C-31.2,210.701 -31.074,210.519 -31,210.288C-30.926,210.058 -30.889,209.723 -30.889,209.285L-30.889,206.535L-30.211,206.535L-30.211,211.668L-30.817,211.668Z" style="fill:rgb(35,31,32);fill-rule:nonzero;"/>
        <path d="M-29.42,210.136L-28.75,210.001C-28.712,210.345 -28.607,210.61 -28.435,210.793C-28.263,210.977 -28.023,211.069 -27.714,211.069C-27.403,211.069 -27.172,210.987 -27.022,210.825C-26.871,210.662 -26.796,210.471 -26.796,210.252C-26.796,210.055 -26.862,209.901 -26.995,209.788C-27.088,209.711 -27.319,209.612 -27.688,209.493C-28.185,209.332 -28.53,209.193 -28.722,209.075C-28.914,208.957 -29.059,208.795 -29.158,208.587C-29.258,208.379 -29.307,208.149 -29.307,207.898C-29.307,207.669 -29.266,207.457 -29.185,207.262C-29.103,207.067 -28.992,206.906 -28.851,206.777C-28.746,206.677 -28.602,206.592 -28.42,206.523C-28.238,206.454 -28.043,206.419 -27.835,206.419C-27.521,206.419 -27.246,206.477 -27.008,206.593C-26.771,206.709 -26.596,206.866 -26.483,207.064C-26.37,207.262 -26.292,207.527 -26.25,207.859L-26.912,207.975C-26.942,207.711 -27.03,207.505 -27.174,207.357C-27.318,207.208 -27.522,207.134 -27.786,207.134C-28.097,207.134 -28.319,207.2 -28.452,207.332C-28.585,207.465 -28.652,207.619 -28.652,207.796C-28.652,207.909 -28.624,208.011 -28.569,208.101C-28.514,208.194 -28.427,208.272 -28.309,208.333C-28.241,208.365 -28.042,208.439 -27.711,208.555C-27.231,208.72 -26.897,208.854 -26.707,208.959C-26.518,209.064 -26.369,209.216 -26.261,209.416C-26.153,209.615 -26.099,209.864 -26.099,210.16C-26.099,210.45 -26.165,210.723 -26.297,210.979C-26.428,211.235 -26.619,211.434 -26.867,211.574C-27.116,211.714 -27.397,211.784 -27.711,211.784C-28.23,211.784 -28.626,211.646 -28.899,211.368C-29.171,211.091 -29.345,210.68 -29.42,210.136Z" style="fill:rgb(35,31,32);fill-rule:nonzero;"/>
        <path d="M-22.556,210.015L-21.855,210.126C-21.966,210.651 -22.171,211.059 -22.469,211.349C-22.768,211.639 -23.15,211.784 -23.614,211.784C-24.199,211.784 -24.663,211.553 -25.005,211.09C-25.348,210.628 -25.519,209.98 -25.519,209.145C-25.519,208.281 -25.346,207.611 -25,207.134C-24.653,206.657 -24.204,206.419 -23.652,206.419C-23.117,206.419 -22.68,206.653 -22.341,207.12C-22.002,207.587 -21.833,208.244 -21.833,209.092C-21.833,209.143 -21.834,209.221 -21.837,209.324L-24.819,209.324C-24.794,209.888 -24.669,210.32 -24.446,210.619C-24.223,210.919 -23.944,211.069 -23.61,211.069C-23.362,211.069 -23.15,210.985 -22.974,210.817C-22.798,210.65 -22.659,210.382 -22.556,210.015ZM-24.781,208.609L-22.548,208.609C-22.578,208.177 -22.664,207.853 -22.804,207.637C-23.02,207.302 -23.3,207.134 -23.644,207.134C-23.955,207.134 -24.217,207.268 -24.429,207.535C-24.641,207.803 -24.759,208.161 -24.781,208.609Z" style="fill:rgb(35,31,32);fill-rule:nonzero;"/>
        <path d="M-39.95,221.891L-39.95,214.805L-36.226,214.805L-36.226,215.641L-39.219,215.641L-39.219,217.835L-36.629,217.835L-36.629,218.672L-39.219,218.672L-39.219,221.891L-39.95,221.891Z" style="fill:rgb(35,31,32);fill-rule:nonzero;"/>
        <path d="M-32.754,221.258C-33.005,221.531 -33.247,221.725 -33.479,221.838C-33.711,221.95 -33.96,222.007 -34.226,222.007C-34.666,222.007 -35.003,221.869 -35.239,221.593C-35.475,221.318 -35.593,220.966 -35.593,220.537C-35.593,220.286 -35.549,220.056 -35.46,219.849C-35.371,219.641 -35.254,219.474 -35.109,219.348C-34.965,219.223 -34.803,219.128 -34.622,219.063C-34.489,219.018 -34.288,218.975 -34.019,218.933C-33.472,218.849 -33.069,218.749 -32.811,218.633C-32.808,218.514 -32.807,218.438 -32.807,218.406C-32.807,218.051 -32.871,217.802 -32.999,217.657C-33.172,217.46 -33.429,217.362 -33.771,217.362C-34.09,217.362 -34.325,217.434 -34.477,217.577C-34.629,217.72 -34.741,217.974 -34.814,218.338L-35.477,218.222C-35.416,217.858 -35.317,217.564 -35.179,217.34C-35.041,217.116 -34.841,216.944 -34.58,216.823C-34.319,216.702 -34.017,216.642 -33.673,216.642C-33.332,216.642 -33.054,216.693 -32.841,216.796C-32.627,216.899 -32.471,217.029 -32.37,217.185C-32.27,217.342 -32.199,217.539 -32.159,217.777C-32.137,217.926 -32.125,218.193 -32.125,218.58L-32.125,219.74C-32.125,220.549 -32.111,221.06 -32.082,221.274C-32.053,221.489 -31.996,221.694 -31.911,221.891L-32.619,221.891C-32.689,221.71 -32.734,221.499 -32.754,221.258ZM-32.811,219.315C-33.057,219.443 -33.426,219.553 -33.918,219.643C-34.196,219.695 -34.393,219.753 -34.509,219.817C-34.624,219.882 -34.713,219.976 -34.776,220.1C-34.839,220.224 -34.87,220.362 -34.87,220.513C-34.87,220.745 -34.802,220.939 -34.665,221.093C-34.528,221.248 -34.328,221.325 -34.065,221.325C-33.804,221.325 -33.571,221.252 -33.368,221.105C-33.165,220.959 -33.015,220.758 -32.92,220.504C-32.847,220.307 -32.811,220.017 -32.811,219.634L-32.811,219.315Z" style="fill:rgb(35,31,32);fill-rule:nonzero;"/>
        <path d="M-31.082,221.891L-31.082,216.758L-30.472,216.758L-30.472,217.536C-30.317,217.172 -30.173,216.932 -30.041,216.816C-29.91,216.7 -29.765,216.642 -29.606,216.642C-29.378,216.642 -29.146,216.735 -28.91,216.922L-29.143,217.729C-29.309,217.603 -29.475,217.541 -29.64,217.541C-29.788,217.541 -29.921,217.598 -30.039,217.712C-30.157,217.827 -30.242,217.985 -30.292,218.188C-30.367,218.498 -30.405,218.836 -30.405,219.203L-30.405,221.891L-31.082,221.891Z" style="fill:rgb(35,31,32);fill-rule:nonzero;"/>
        <path d="M-28.507,221.891L-28.507,216.758L-27.901,216.758L-27.901,217.478C-27.775,217.226 -27.608,217.024 -27.4,216.871C-27.192,216.718 -26.954,216.642 -26.688,216.642C-26.392,216.642 -26.149,216.721 -25.96,216.878C-25.77,217.036 -25.637,217.257 -25.559,217.541C-25.242,216.941 -24.831,216.642 -24.324,216.642C-23.927,216.642 -23.622,216.783 -23.409,217.065C-23.195,217.347 -23.089,217.781 -23.089,218.367L-23.089,221.891L-23.763,221.891L-23.763,218.657C-23.763,218.309 -23.785,218.059 -23.829,217.906C-23.872,217.753 -23.952,217.629 -24.068,217.536C-24.183,217.442 -24.319,217.396 -24.474,217.396C-24.755,217.396 -24.989,217.516 -25.175,217.756C-25.36,217.996 -25.453,218.38 -25.453,218.909L-25.453,221.891L-26.131,221.891L-26.131,218.556C-26.131,218.169 -26.186,217.879 -26.297,217.686C-26.407,217.492 -26.588,217.396 -26.839,217.396C-27.03,217.396 -27.206,217.46 -27.368,217.589C-27.53,217.718 -27.647,217.906 -27.72,218.155C-27.793,218.403 -27.829,218.76 -27.829,219.228L-27.829,221.891L-28.507,221.891Z" style="fill:rgb(35,31,32);fill-rule:nonzero;"/>
    </g>
    <g transform="matrix(1.23179,0,0,0.963369,312.356,236.864)">
        <path d="M-38.453,201.445L-38.453,194.36L-34.729,194.36L-34.729,195.196L-37.723,195.196L-37.723,197.39L-35.132,197.39L-35.132,198.226L-37.723,198.226L-37.723,201.445L-38.453,201.445Z" style="fill:rgb(35,31,32);fill-rule:nonzero;"/>
        <path d="M-34.119,198.879C-34.119,197.928 -33.913,197.224 -33.502,196.767C-33.158,196.386 -32.739,196.196 -32.244,196.196C-31.694,196.196 -31.245,196.427 -30.896,196.89C-30.547,197.352 -30.373,197.991 -30.373,198.806C-30.373,199.467 -30.45,199.986 -30.604,200.365C-30.759,200.744 -30.983,201.038 -31.278,201.247C-31.573,201.457 -31.895,201.561 -32.244,201.561C-32.804,201.561 -33.256,201.331 -33.601,200.87C-33.947,200.409 -34.119,199.746 -34.119,198.879ZM-33.423,198.879C-33.423,199.536 -33.311,200.028 -33.087,200.355C-32.864,200.683 -32.583,200.846 -32.244,200.846C-31.908,200.846 -31.628,200.682 -31.404,200.353C-31.181,200.024 -31.069,199.523 -31.069,198.85C-31.069,198.215 -31.182,197.734 -31.406,197.407C-31.631,197.08 -31.91,196.916 -32.244,196.916C-32.583,196.916 -32.864,197.079 -33.087,197.405C-33.311,197.73 -33.423,198.221 -33.423,198.879Z" style="fill:rgb(35,31,32);fill-rule:nonzero;"/>
        <path d="M-30.03,201.445L-28.569,198.777L-29.921,196.312L-29.074,196.312L-28.46,197.516C-28.344,197.745 -28.252,197.936 -28.181,198.091C-28.071,197.878 -27.969,197.69 -27.876,197.525L-27.202,196.312L-26.393,196.312L-27.775,198.729L-26.287,201.445L-27.119,201.445L-27.94,199.85L-28.159,199.42L-29.209,201.445L-30.03,201.445Z" style="fill:rgb(35,31,32);fill-rule:nonzero;"/>
        <path d="M-35.974,211.035C-36.225,211.309 -36.466,211.502 -36.698,211.615C-36.931,211.728 -37.18,211.784 -37.446,211.784C-37.885,211.784 -38.223,211.646 -38.459,211.371C-38.695,211.095 -38.813,210.743 -38.813,210.315C-38.813,210.063 -38.768,209.834 -38.679,209.626C-38.59,209.418 -38.473,209.251 -38.329,209.126C-38.184,209 -38.022,208.905 -37.841,208.841C-37.708,208.795 -37.507,208.752 -37.239,208.71C-36.692,208.626 -36.289,208.526 -36.03,208.41C-36.028,208.291 -36.026,208.215 -36.026,208.183C-36.026,207.829 -36.09,207.579 -36.218,207.434C-36.392,207.237 -36.649,207.139 -36.99,207.139C-37.309,207.139 -37.544,207.211 -37.696,207.354C-37.848,207.498 -37.96,207.751 -38.033,208.115L-38.696,207.999C-38.636,207.635 -38.537,207.341 -38.398,207.117C-38.26,206.893 -38.061,206.721 -37.8,206.6C-37.539,206.479 -37.236,206.419 -36.892,206.419C-36.551,206.419 -36.274,206.471 -36.06,206.574C-35.847,206.677 -35.69,206.806 -35.59,206.963C-35.489,207.119 -35.419,207.316 -35.379,207.555C-35.356,207.703 -35.345,207.97 -35.345,208.357L-35.345,209.517C-35.345,210.326 -35.33,210.838 -35.301,211.052C-35.273,211.266 -35.216,211.471 -35.13,211.668L-35.838,211.668C-35.908,211.488 -35.954,211.277 -35.974,211.035ZM-36.03,209.092C-36.276,209.221 -36.645,209.33 -37.137,209.421C-37.416,209.472 -37.613,209.53 -37.728,209.595C-37.844,209.659 -37.933,209.753 -37.996,209.877C-38.058,210.001 -38.09,210.139 -38.09,210.291C-38.09,210.523 -38.021,210.716 -37.885,210.871C-37.748,211.025 -37.548,211.103 -37.284,211.103C-37.023,211.103 -36.791,211.029 -36.587,210.883C-36.384,210.736 -36.235,210.535 -36.139,210.281C-36.066,210.084 -36.03,209.794 -36.03,209.411L-36.03,209.092Z" style="fill:rgb(35,31,32);fill-rule:nonzero;"/>
        <path d="M-34.294,211.668L-34.294,206.535L-33.684,206.535L-33.684,207.265C-33.391,206.701 -32.966,206.419 -32.412,206.419C-32.171,206.419 -31.949,206.475 -31.747,206.586C-31.545,206.697 -31.394,206.843 -31.293,207.023C-31.193,207.204 -31.123,207.418 -31.082,207.666C-31.057,207.827 -31.045,208.109 -31.045,208.512L-31.045,211.668L-31.723,211.668L-31.723,208.546C-31.723,208.191 -31.749,207.926 -31.802,207.751C-31.854,207.575 -31.948,207.435 -32.082,207.33C-32.216,207.225 -32.374,207.173 -32.555,207.173C-32.843,207.173 -33.092,207.291 -33.302,207.526C-33.512,207.761 -33.617,208.207 -33.617,208.865L-33.617,211.668L-34.294,211.668Z" style="fill:rgb(35,31,32);fill-rule:nonzero;"/>
        <path d="M-27.411,211.668L-27.411,211.02C-27.665,211.529 -28.038,211.784 -28.53,211.784C-28.848,211.784 -29.141,211.671 -29.409,211.446C-29.676,211.22 -29.883,210.905 -30.03,210.501C-30.177,210.096 -30.25,209.632 -30.25,209.106C-30.25,208.594 -30.184,208.129 -30.051,207.712C-29.918,207.295 -29.718,206.975 -29.452,206.752C-29.186,206.53 -28.889,206.419 -28.56,206.419C-28.319,206.419 -28.104,206.484 -27.916,206.615C-27.728,206.745 -27.574,206.915 -27.456,207.125L-27.456,204.582L-26.782,204.582L-26.782,211.668L-27.411,211.668ZM-29.554,209.106C-29.554,209.764 -29.446,210.255 -29.23,210.581C-29.014,210.906 -28.759,211.069 -28.466,211.069C-28.169,211.069 -27.918,210.913 -27.711,210.602C-27.503,210.291 -27.4,209.817 -27.4,209.179C-27.4,208.476 -27.505,207.961 -27.716,207.632C-27.927,207.303 -28.187,207.139 -28.496,207.139C-28.797,207.139 -29.049,207.297 -29.251,207.613C-29.453,207.929 -29.554,208.426 -29.554,209.106Z" style="fill:rgb(35,31,32);fill-rule:nonzero;"/>
        <path d="M-45.33,221.891L-45.33,214.805L-44.6,214.805L-44.6,217.715L-41.731,217.715L-41.731,214.805L-41,214.805L-41,221.891L-41.731,221.891L-41.731,218.551L-44.6,218.551L-44.6,221.891L-45.33,221.891Z" style="fill:rgb(35,31,32);fill-rule:nonzero;"/>
        <path d="M-40.123,219.324C-40.123,218.374 -39.917,217.67 -39.505,217.212C-39.162,216.832 -38.742,216.642 -38.248,216.642C-37.698,216.642 -37.249,216.873 -36.9,217.335C-36.551,217.798 -36.376,218.436 -36.376,219.252C-36.376,219.912 -36.454,220.432 -36.608,220.81C-36.762,221.189 -36.987,221.483 -37.282,221.693C-37.577,221.902 -37.899,222.007 -38.248,222.007C-38.808,222.007 -39.26,221.776 -39.605,221.316C-39.95,220.855 -40.123,220.191 -40.123,219.324ZM-39.426,219.324C-39.426,219.982 -39.315,220.474 -39.091,220.801C-38.868,221.128 -38.587,221.291 -38.248,221.291C-37.911,221.291 -37.632,221.127 -37.408,220.798C-37.185,220.47 -37.073,219.969 -37.073,219.295C-37.073,218.66 -37.185,218.179 -37.41,217.852C-37.635,217.525 -37.914,217.362 -38.248,217.362C-38.587,217.362 -38.868,217.525 -39.091,217.85C-39.315,218.175 -39.426,218.667 -39.426,219.324Z" style="fill:rgb(35,31,32);fill-rule:nonzero;"/>
        <path d="M-32.961,221.891L-32.961,221.137C-33.273,221.717 -33.696,222.007 -34.23,222.007C-34.466,222.007 -34.686,221.949 -34.891,221.833C-35.096,221.717 -35.248,221.571 -35.347,221.395C-35.446,221.22 -35.515,221.005 -35.556,220.75C-35.583,220.579 -35.597,220.309 -35.597,219.938L-35.597,216.758L-34.919,216.758L-34.919,219.605C-34.919,220.059 -34.906,220.365 -34.878,220.523C-34.835,220.752 -34.745,220.931 -34.607,221.062C-34.469,221.192 -34.298,221.258 -34.095,221.258C-33.891,221.258 -33.701,221.191 -33.522,221.057C-33.344,220.923 -33.218,220.741 -33.144,220.511C-33.07,220.28 -33.033,219.946 -33.033,219.508L-33.033,216.758L-32.355,216.758L-32.355,221.891L-32.961,221.891Z" style="fill:rgb(35,31,32);fill-rule:nonzero;"/>
        <path d="M-31.293,221.891L-31.293,216.758L-30.683,216.758L-30.683,217.487C-30.39,216.924 -29.965,216.642 -29.411,216.642C-29.17,216.642 -28.948,216.697 -28.746,216.808C-28.544,216.92 -28.393,217.065 -28.292,217.246C-28.192,217.426 -28.122,217.641 -28.081,217.889C-28.056,218.05 -28.044,218.332 -28.044,218.735L-28.044,221.891L-28.722,221.891L-28.722,218.768C-28.722,218.414 -28.748,218.149 -28.801,217.973C-28.853,217.798 -28.947,217.657 -29.081,217.553C-29.215,217.448 -29.373,217.396 -29.554,217.396C-29.842,217.396 -30.092,217.513 -30.301,217.748C-30.511,217.984 -30.616,218.43 -30.616,219.087L-30.616,221.891L-31.293,221.891Z" style="fill:rgb(35,31,32);fill-rule:nonzero;"/>
        <path d="M-24.41,221.891L-24.41,221.243C-24.664,221.752 -25.037,222.007 -25.529,222.007C-25.847,222.007 -26.14,221.894 -26.408,221.668C-26.675,221.443 -26.882,221.128 -27.029,220.723C-27.176,220.319 -27.249,219.854 -27.249,219.329C-27.249,218.817 -27.183,218.352 -27.05,217.935C-26.917,217.517 -26.717,217.197 -26.451,216.975C-26.185,216.753 -25.888,216.642 -25.559,216.642C-25.318,216.642 -25.103,216.707 -24.915,216.837C-24.727,216.968 -24.573,217.138 -24.455,217.347L-24.455,214.805L-23.781,214.805L-23.781,221.891L-24.41,221.891ZM-26.553,219.329C-26.553,219.986 -26.445,220.478 -26.229,220.803C-26.013,221.129 -25.758,221.291 -25.465,221.291C-25.168,221.291 -24.917,221.136 -24.71,220.825C-24.503,220.514 -24.399,220.04 -24.399,219.402C-24.399,218.699 -24.504,218.184 -24.715,217.855C-24.926,217.526 -25.186,217.362 -25.495,217.362C-25.796,217.362 -26.048,217.52 -26.25,217.835C-26.452,218.151 -26.553,218.649 -26.553,219.329Z" style="fill:rgb(35,31,32);fill-rule:nonzero;"/>
        <path d="M-22.987,220.359L-22.317,220.223C-22.279,220.568 -22.174,220.832 -22.002,221.016C-21.83,221.2 -21.59,221.291 -21.281,221.291C-20.97,221.291 -20.739,221.21 -20.588,221.047C-20.438,220.885 -20.363,220.694 -20.363,220.475C-20.363,220.278 -20.429,220.123 -20.562,220.011C-20.655,219.933 -20.886,219.835 -21.255,219.716C-21.752,219.555 -22.096,219.415 -22.288,219.298C-22.481,219.18 -22.626,219.017 -22.725,218.809C-22.824,218.602 -22.874,218.372 -22.874,218.121C-22.874,217.892 -22.833,217.68 -22.752,217.485C-22.67,217.29 -22.559,217.128 -22.418,216.999C-22.313,216.899 -22.169,216.815 -21.987,216.746C-21.805,216.676 -21.61,216.642 -21.402,216.642C-21.088,216.642 -20.812,216.7 -20.575,216.816C-20.338,216.932 -20.163,217.089 -20.05,217.287C-19.937,217.485 -19.859,217.75 -19.817,218.082L-20.479,218.198C-20.509,217.934 -20.597,217.728 -20.741,217.579C-20.885,217.431 -21.089,217.357 -21.353,217.357C-21.664,217.357 -21.886,217.423 -22.019,217.555C-22.152,217.687 -22.219,217.842 -22.219,218.019C-22.219,218.132 -22.191,218.233 -22.136,218.324C-22.081,218.417 -21.994,218.494 -21.876,218.556C-21.808,218.588 -21.609,218.662 -21.278,218.778C-20.798,218.942 -20.464,219.077 -20.274,219.182C-20.085,219.286 -19.936,219.439 -19.828,219.638C-19.72,219.838 -19.666,220.086 -19.666,220.383C-19.666,220.673 -19.732,220.946 -19.864,221.202C-19.995,221.458 -20.186,221.656 -20.434,221.796C-20.683,221.937 -20.964,222.007 -21.278,222.007C-21.797,222.007 -22.193,221.868 -22.465,221.591C-22.738,221.314 -22.912,220.903 -22.987,220.359Z" style="fill:rgb(35,31,32);fill-rule:nonzero;"/>
    </g>
    <g transform="matrix(2.00061,0,0,2.00848,0,2.00848)">
        <path d="M-5.109,119.475L16.746,131.94L45.91,143.552L66.837,156L87.502,166.598L108.356,177.864L127.84,187.603L141.484,193.914L153.989,199.815L169.756,202.858L193.199,206.789L208.343,216.042L226.87,226.449L236.73,251.385" style="fill:none;stroke:rgb(19,13,13);stroke-width:5.96px;"/>
    </g>
    <g transform="matrix(2.00061,0,0,2.00848,-124.22,-340.066)">
        <path d="M290.556,227.805L301.78,236.031L297.493,249.341L283.62,249.341L279.332,236.031L290.556,227.805Z" style="fill:rgb(243,248,237);stroke:rgb(247,242,242);stroke-width:1.99px;"/>
    </g>
    <g transform="matrix(1.29803,0,0,1.01517,508.769,-63.0692)">
        <path d="M-49.507,198.961L-48.777,199.198C-48.93,199.968 -49.205,200.555 -49.603,200.96C-50.001,201.364 -50.488,201.566 -51.062,201.566C-51.657,201.566 -52.141,201.411 -52.514,201.1C-52.887,200.789 -53.17,200.339 -53.365,199.749C-53.559,199.159 -53.657,198.526 -53.657,197.849C-53.657,197.111 -53.547,196.468 -53.327,195.918C-53.108,195.369 -52.795,194.952 -52.39,194.667C-51.984,194.381 -51.538,194.239 -51.051,194.239C-50.499,194.239 -50.034,194.419 -49.658,194.78C-49.281,195.141 -49.019,195.649 -48.871,196.303L-49.59,196.52C-49.718,196.005 -49.904,195.629 -50.147,195.394C-50.391,195.159 -50.697,195.041 -51.066,195.041C-51.49,195.041 -51.845,195.172 -52.13,195.433C-52.415,195.694 -52.615,196.044 -52.73,196.484C-52.846,196.924 -52.904,197.377 -52.904,197.844C-52.904,198.447 -52.835,198.973 -52.698,199.423C-52.562,199.872 -52.349,200.208 -52.06,200.43C-51.772,200.653 -51.459,200.764 -51.123,200.764C-50.713,200.764 -50.367,200.612 -50.083,200.31C-49.8,200.007 -49.608,199.557 -49.507,198.961Z" style="fill:rgb(35,31,32);fill-rule:nonzero;"/>
        <path d="M-48.216,198.879C-48.216,197.928 -48.01,197.224 -47.598,196.767C-47.254,196.386 -46.835,196.196 -46.341,196.196C-45.791,196.196 -45.342,196.427 -44.993,196.89C-44.644,197.352 -44.469,197.991 -44.469,198.806C-44.469,199.467 -44.546,199.986 -44.701,200.365C-44.855,200.744 -45.08,201.038 -45.375,201.247C-45.67,201.457 -45.992,201.561 -46.341,201.561C-46.9,201.561 -47.353,201.331 -47.698,200.87C-48.043,200.409 -48.216,199.746 -48.216,198.879ZM-47.519,198.879C-47.519,199.536 -47.407,200.028 -47.184,200.355C-46.961,200.683 -46.68,200.846 -46.341,200.846C-46.004,200.846 -45.724,200.682 -45.501,200.353C-45.278,200.024 -45.166,199.523 -45.166,198.85C-45.166,198.215 -45.278,197.734 -45.503,197.407C-45.728,197.08 -46.007,196.916 -46.341,196.916C-46.68,196.916 -46.961,197.079 -47.184,197.405C-47.407,197.73 -47.519,198.221 -47.519,198.879Z" style="fill:rgb(35,31,32);fill-rule:nonzero;"/>
        <path d="M-43.05,201.445L-43.679,201.445L-43.679,194.36L-43.001,194.36L-43.001,196.887C-42.715,196.427 -42.349,196.196 -41.905,196.196C-41.659,196.196 -41.426,196.26 -41.207,196.387C-40.987,196.514 -40.806,196.693 -40.664,196.924C-40.523,197.154 -40.411,197.432 -40.331,197.757C-40.251,198.083 -40.211,198.431 -40.211,198.802C-40.211,199.681 -40.38,200.361 -40.719,200.841C-41.058,201.321 -41.465,201.561 -41.939,201.561C-42.411,201.561 -42.781,201.308 -43.05,200.803L-43.05,201.445ZM-43.057,198.84C-43.057,199.456 -42.992,199.9 -42.861,200.174C-42.648,200.622 -42.359,200.846 -41.995,200.846C-41.699,200.846 -41.443,200.681 -41.227,200.351C-41.011,200.02 -40.903,199.528 -40.903,198.874C-40.903,198.204 -41.007,197.709 -41.214,197.39C-41.421,197.071 -41.672,196.912 -41.965,196.912C-42.262,196.912 -42.518,197.077 -42.733,197.407C-42.949,197.737 -43.057,198.215 -43.057,198.84Z" style="fill:rgb(35,31,32);fill-rule:nonzero;"/>
        <path d="M-38.761,201.445L-39.39,201.445L-39.39,194.36L-38.712,194.36L-38.712,196.887C-38.426,196.427 -38.061,196.196 -37.616,196.196C-37.37,196.196 -37.138,196.26 -36.918,196.387C-36.698,196.514 -36.518,196.693 -36.376,196.924C-36.234,197.154 -36.123,197.432 -36.042,197.757C-35.962,198.083 -35.922,198.431 -35.922,198.802C-35.922,199.681 -36.091,200.361 -36.43,200.841C-36.769,201.321 -37.176,201.561 -37.65,201.561C-38.122,201.561 -38.492,201.308 -38.761,200.803L-38.761,201.445ZM-38.769,198.84C-38.769,199.456 -38.703,199.9 -38.573,200.174C-38.359,200.622 -38.071,200.846 -37.707,200.846C-37.411,200.846 -37.154,200.681 -36.939,200.351C-36.723,200.02 -36.615,199.528 -36.615,198.874C-36.615,198.204 -36.718,197.709 -36.925,197.39C-37.133,197.071 -37.383,196.912 -37.677,196.912C-37.973,196.912 -38.229,197.077 -38.445,197.407C-38.661,197.737 -38.769,198.215 -38.769,198.84Z" style="fill:rgb(35,31,32);fill-rule:nonzero;"/>
        <rect x="-35.112" y="194.36" width="0.678" height="7.086" style="fill:rgb(35,31,32);fill-rule:nonzero;"/>
        <path d="M-30.647,199.792L-29.946,199.904C-30.057,200.429 -30.261,200.836 -30.56,201.126C-30.859,201.416 -31.24,201.561 -31.705,201.561C-32.29,201.561 -32.753,201.33 -33.096,200.868C-33.439,200.405 -33.61,199.757 -33.61,198.922C-33.61,198.059 -33.437,197.389 -33.09,196.912C-32.744,196.435 -32.295,196.196 -31.742,196.196C-31.208,196.196 -30.771,196.43 -30.432,196.897C-30.093,197.364 -29.924,198.022 -29.924,198.869C-29.924,198.921 -29.925,198.998 -29.928,199.101L-32.91,199.101C-32.885,199.665 -32.76,200.097 -32.537,200.397C-32.314,200.696 -32.035,200.846 -31.701,200.846C-31.453,200.846 -31.24,200.762 -31.065,200.595C-30.889,200.427 -30.75,200.16 -30.647,199.792ZM-32.872,198.386L-30.639,198.386C-30.669,197.954 -30.755,197.63 -30.895,197.414C-31.111,197.079 -31.391,196.912 -31.735,196.912C-32.046,196.912 -32.308,197.045 -32.52,197.313C-32.732,197.58 -32.849,197.938 -32.872,198.386Z" style="fill:rgb(35,31,32);fill-rule:nonzero;"/>
        <path d="M-29.367,199.913L-28.696,199.778C-28.659,200.123 -28.554,200.387 -28.382,200.571C-28.21,200.754 -27.97,200.846 -27.661,200.846C-27.35,200.846 -27.119,200.765 -26.968,200.602C-26.817,200.439 -26.742,200.248 -26.742,200.029C-26.742,199.833 -26.809,199.678 -26.942,199.565C-27.035,199.488 -27.265,199.39 -27.634,199.27C-28.131,199.109 -28.476,198.97 -28.668,198.852C-28.86,198.735 -29.006,198.572 -29.105,198.364C-29.204,198.156 -29.254,197.927 -29.254,197.675C-29.254,197.447 -29.213,197.235 -29.131,197.04C-29.05,196.845 -28.939,196.683 -28.798,196.554C-28.693,196.454 -28.549,196.369 -28.367,196.3C-28.185,196.231 -27.99,196.196 -27.781,196.196C-27.468,196.196 -27.192,196.254 -26.955,196.37C-26.718,196.486 -26.543,196.643 -26.43,196.842C-26.317,197.04 -26.239,197.305 -26.196,197.637L-26.859,197.753C-26.889,197.488 -26.976,197.282 -27.12,197.134C-27.265,196.986 -27.469,196.912 -27.732,196.912C-28.044,196.912 -28.266,196.978 -28.399,197.11C-28.532,197.242 -28.598,197.397 -28.598,197.574C-28.598,197.687 -28.571,197.788 -28.516,197.878C-28.46,197.972 -28.374,198.049 -28.256,198.11C-28.188,198.143 -27.988,198.217 -27.657,198.333C-27.178,198.497 -26.843,198.632 -26.654,198.736C-26.464,198.841 -26.315,198.993 -26.207,199.193C-26.099,199.393 -26.045,199.641 -26.045,199.937C-26.045,200.227 -26.111,200.5 -26.243,200.757C-26.375,201.013 -26.565,201.211 -26.814,201.351C-27.062,201.491 -27.343,201.561 -27.657,201.561C-28.177,201.561 -28.573,201.423 -28.845,201.146C-29.117,200.869 -29.291,200.458 -29.367,199.913Z" style="fill:rgb(35,31,32);fill-rule:nonzero;"/>
    </g>
    <g id="Minor-Roads" serif:id="Minor Roads" transform="matrix(2.00061,0,0,1.98243,0,0)">
        <g transform="matrix(1,0,0,1.01314,0,1.01314)">
            <path d="M-5.109,119.475L16.746,131.94L45.91,143.552L66.837,156L87.502,166.598L108.356,177.864L127.84,187.603L141.484,193.914L153.989,199.815L169.756,202.858L193.199,206.789L208.343,216.042L226.87,226.449L236.73,251.385" style="fill:none;stroke:rgb(245,240,240);stroke-width:3.97px;"/>
        </g>
        <g transform="matrix(1,0,0,1.01314,0,1.01314)">
            <path d="M186.891,73.8L192.674,80.985" style="fill:none;stroke:rgb(245,240,240);stroke-width:1.99px;"/>
        </g>
        <g transform="matrix(1,0,0,1.01314,0,1.01314)">
            <path d="M180.917,80.762L190.638,85.25" style="fill:none;stroke:rgb(245,240,240);stroke-width:1.99px;"/>
        </g>
        <g transform="matrix(1,0,0,1.01314,0,1.01314)">
            <path d="M193.832,68.103L197.735,72.361" style="fill:none;stroke:rgb(245,240,240);stroke-width:1.99px;"/>
        </g>
        <g transform="matrix(1,0,0,1.01314,0,1.01314)">
            <path d="M175.068,82.703C175.068,82.703 169.687,86.163 164.055,86.163C158.423,86.163 143.83,84.708 141.822,88.462C139.813,92.216 128.244,93.135 128.244,93.135C128.244,93.135 120.155,97.091 106.386,91.785C92.616,86.479 85.219,91.602 85.398,93.416C85.577,95.229 72.063,102.213 72.063,102.213C72.062,102.213 68.028,106.393 58.252,103.169C48.475,99.946 46.293,99.549 46.293,99.549" style="fill:none;stroke:rgb(245,240,240);stroke-width:1.99px;"/>
        </g>
        <g transform="matrix(1,0,0,1.01314,0,1.01314)">
            <path d="M123.159,181.409L133.356,149.712L134.734,137.559C134.734,137.559 135.552,129.158 138.838,131.236" style="fill:none;stroke:rgb(245,240,240);stroke-width:1.99px;"/>
        </g>
        <g transform="matrix(1,0,0,1.01314,0,1.01314)">
            <path d="M126.239,146.194L131.626,149.249" style="fill:none;stroke:rgb(245,240,240);stroke-width:1.99px;"/>
        </g>
        <g transform="matrix(1,0,0,1.01314,0,1.01314)">
            <path d="M197.02,171.379L231.37,174.84L250.663,167.426L260.698,163.998L275.106,163.998L283.654,164.212L293.184,167.802" style="fill:none;stroke:rgb(247,242,242);stroke-width:1.99px;"/>
        </g>
        <g transform="matrix(1,0,0,1.01314,0,1.01314)">
            <path d="M204.025,116.295L210.866,121.353L228.845,123.835" style="fill:none;stroke:rgb(247,242,242);stroke-width:1.99px;"/>
        </g>
    </g>
    <g id="Road-Names" serif:id="Road Names" transform="matrix(2.00061,0,0,1.98243,0,0)">
        <g transform="matrix(0.268047,0.215003,-0.639657,0.778706,376.42,-155.848)">
            <g transform="matrix(1.12412,-0.310373,0.931855,0.390492,-558.631,354.377)">
                <path d="M434.475,136.793L427.98,135.234L430.63,141.365C430.448,139.261 432.371,136.975 434.475,136.793Z" style="fill:rgb(23,12,12);"/>
                <path d="M431.638,138.31C435.088,141.212 439.734,145.119 439.734,145.119" style="fill:none;stroke:rgb(23,12,12);stroke-width:1.99px;"/>
            </g>
        </g>
        <g transform="matrix(-0.0472314,0.299848,-0.982533,-0.188311,463.257,232.62)">
            <g transform="matrix(-0.310134,-0.493826,1.63299,-0.0784994,-465.628,493.876)">
                <path d="M384.742,393.986L382.931,387.557L378.874,392.863C380.621,391.677 383.555,392.238 384.742,393.986Z" style="fill:rgb(23,12,12);"/>
                <path d="M382.032,392.251C381.303,396.062 380.395,400.807 380.395,400.807" style="fill:none;stroke:rgb(23,12,12);stroke-width:1.99px;"/>
            </g>
        </g>
        <g transform="matrix(-0.261052,0.149159,-0.466005,-0.896359,310.364,451.933)">
            <g transform="matrix(-1.47623,-0.245653,0.774508,-0.433872,222.713,541.248)">
                <path d="M335.917,428.173L339.817,422.75L333.139,422.883C335.156,423.511 336.544,426.156 335.917,428.173Z" style="fill:rgb(23,12,12);"/>
                <path d="M335.586,424.972C332.163,426.77 327.909,429.004 327.909,429.004" style="fill:none;stroke:rgb(23,12,12);stroke-width:1.99px;"/>
            </g>
        </g>
        <g transform="matrix(-0.133468,0.271871,-0.882177,-0.477018,400.021,348.477)">
            <g transform="matrix(-0.785611,-0.44775,1.46619,-0.221826,-384.183,511.572)">
                <path d="M302.952,464.201L303.137,457.523L297.684,461.381C299.706,460.769 302.34,462.179 302.952,464.201Z" style="fill:rgb(23,12,12);"/>
                <path d="M300.882,461.737C299.052,465.155 296.776,469.409 296.776,469.409" style="fill:none;stroke:rgb(23,12,12);stroke-width:1.99px;"/>
            </g>
        </g>
        <g transform="matrix(-0.293463,-0.0616454,0.231037,-0.985685,57.5371,521.019)">
            <g transform="matrix(-1.62335,0.101525,-0.383987,-0.487741,583.477,492.095)">
                <path d="M206.942,492.364L213.451,490.863L208.344,486.557C209.446,488.359 208.745,491.263 206.942,492.364Z" style="fill:rgb(23,12,12);"/>
                <path d="M208.805,489.741C205.049,488.834 200.384,487.708 200.384,487.708" style="fill:none;stroke:rgb(23,12,12);stroke-width:1.99px;"/>
            </g>
        </g>
        <g transform="matrix(-0.298494,-0.0272686,0.118355,-1.00598,51.7346,513.758)">
            <g transform="matrix(-1.65676,0.0449092,-0.196708,-0.496102,371.821,500.627)">
                <path d="M133.214,470.975L139.507,468.736L133.94,465.044C135.241,466.709 134.878,469.674 133.214,470.975Z" style="fill:rgb(23,12,12);"/>
                <path d="M134.763,468.155C130.929,467.685 126.167,467.101 126.167,467.101" style="fill:none;stroke:rgb(23,12,12);stroke-width:1.99px;"/>
            </g>
        </g>
        <g transform="matrix(-0.116094,-0.279936,0.932631,-0.365459,-205.241,331.649)">
            <g transform="matrix(-0.601883,0.461033,-1.55005,-0.19295,771.976,316.162)">
                <path d="M85.102,427.281L90.025,431.796L90.683,425.149C89.821,427.077 87.03,428.143 85.102,427.281Z" style="fill:rgb(23,12,12);"/>
                <path d="M88.319,427.331C86.935,423.708 85.212,419.199 85.212,419.199" style="fill:none;stroke:rgb(23,12,12);stroke-width:1.99px;"/>
            </g>
        </g>
        <g transform="matrix(-0.00495841,-0.303601,0.999885,0.0123256,-231.623,202.855)">
            <g transform="matrix(0.0202994,0.500007,-1.66183,-0.00824097,677.705,235.01)">
                <path d="M82.042,373.649L84.94,379.668L88.016,373.738C86.5,375.21 83.513,375.165 82.042,373.649Z" style="fill:rgb(23,12,12);"/>
                <path d="M85.011,374.889C85.069,371.008 85.141,366.177 85.141,366.177" style="fill:none;stroke:rgb(23,12,12);stroke-width:1.99px;"/>
            </g>
        </g>
        <g transform="matrix(-0.0449766,-0.300204,0.992536,-0.123218,-227.634,210.348)">
            <g transform="matrix(-0.202931,0.494412,-1.64961,-0.074752,595.475,256.33)">
                <path d="M81.33,315.55L85.004,321.129L87.263,314.843C85.957,316.503 82.99,316.856 81.33,315.55Z" style="fill:rgb(23,12,12);"/>
                <path d="M84.438,316.383C83.979,312.53 83.407,307.732 83.407,307.732" style="fill:none;stroke:rgb(23,12,12);stroke-width:1.99px;"/>
            </g>
        </g>
        <g transform="matrix(0.00213359,-0.303635,0.999318,0.0362922,-246.186,135.09)">
            <g transform="matrix(0.0597704,0.500062,-1.66088,0.00354606,474.233,245.342)">
                <path d="M53.425,252.274L56.18,258.359L59.395,252.504C57.845,253.939 54.86,253.824 53.425,252.274Z" style="fill:rgb(23,12,12);"/>
                <path d="M56.364,253.583C56.513,249.705 56.699,244.877 56.699,244.877" style="fill:none;stroke:rgb(23,12,12);stroke-width:1.99px;"/>
            </g>
        </g>
        <g transform="matrix(0.229591,-0.195173,0.62049,0.794465,-141.501,-105.42)">
            <g transform="matrix(1.30842,0.321434,-1.03126,0.381585,154.877,170.741)">
                <path d="M82.588,198.301L79.751,204.348L86.291,202.989C84.193,202.743 82.341,200.399 82.588,198.301Z" style="fill:rgb(23,12,12);"/>
                <path d="M83.501,201.386C86.538,198.988 90.313,196.006 90.313,196.006" style="fill:none;stroke:rgb(23,12,12);stroke-width:1.99px;"/>
            </g>
        </g>
        <g transform="matrix(0.199611,-0.226495,0.726471,0.696165,-137.47,-82.5627)">
            <g transform="matrix(1.14653,0.37302,-1.20741,0.331757,117.7,156.89)">
                <path d="M145.018,186.795L143.077,193.187L149.354,190.904C147.243,190.961 145.074,188.907 145.018,186.795Z" style="fill:rgb(23,12,12);"/>
                <path d="M146.364,189.717C149.027,186.906 152.339,183.411 152.339,183.411" style="fill:none;stroke:rgb(23,12,12);stroke-width:1.99px;"/>
            </g>
        </g>
        <g transform="matrix(0.299123,0.0189038,-0.0908794,1.0089,114.487,-191.944)">
            <g transform="matrix(1.66159,-0.031133,0.151043,0.497148,-323.101,196.304)">
                <path d="M214.408,167.615L208.179,170.027L213.846,173.563C212.499,171.935 212.78,168.961 214.408,167.615Z" style="fill:rgb(23,12,12);"/>
                <path d="M212.937,170.476C216.782,170.84 221.559,171.291 221.559,171.291" style="fill:none;stroke:rgb(23,12,12);stroke-width:1.99px;"/>
            </g>
        </g>
        <g transform="matrix(0.270136,-0.13151,0.407039,0.925365,11.8597,-164.83)">
            <g transform="matrix(1.524,0.216587,-0.676506,0.448971,-257.218,141.57)">
                <path d="M277.59,158.73L273.342,163.885L280.015,164.191C278.044,163.432 276.831,160.701 277.59,158.73Z" style="fill:rgb(23,12,12);"/>
                <path d="M277.71,161.945C281.243,160.377 285.633,158.428 285.633,158.428" style="fill:none;stroke:rgb(23,12,12);stroke-width:1.99px;"/>
            </g>
        </g>
        <g transform="matrix(0.299601,0.00799405,-0.0550119,1.01156,167.485,-196.068)">
            <g transform="matrix(1.66596,-0.0131656,0.0914308,0.497942,-522.679,197.958)">
                <path d="M340.078,159.613L333.94,162.248L339.731,165.578C338.327,164 338.5,161.018 340.078,159.613Z" style="fill:rgb(23,12,12);"/>
                <path d="M338.712,162.526C342.567,162.75 347.357,163.029 347.357,163.029" style="fill:none;stroke:rgb(23,12,12);stroke-width:1.99px;"/>
            </g>
        </g>
        <g transform="matrix(0.197353,-0.228517,0.733343,0.68873,-24.8733,-103.708)">
            <g transform="matrix(1.13428,0.37635,-1.21883,0.328005,-194.141,86.1639)">
                <path d="M373.768,140.618L371.892,147.029L378.146,144.683C376.035,144.762 373.846,142.729 373.768,140.618Z" style="fill:rgb(23,12,12);"/>
                <path d="M375.144,143.526C377.779,140.689 381.056,137.16 381.056,137.16" style="fill:none;stroke:rgb(23,12,12);stroke-width:1.99px;"/>
            </g>
        </g>
        <g transform="matrix(-0.040082,0.300915,-0.986729,-0.164256,477.203,139.522)">
            <g transform="matrix(-0.270517,-0.495583,1.63996,-0.066617,-195.341,491.556)">
                <path d="M411.186,222.566L409.221,216.182L405.293,221.584C407.011,220.357 409.958,220.847 411.186,222.566Z" style="fill:rgb(23,12,12);"/>
                <path d="M408.436,220.897C407.798,224.724 407.004,229.49 407.004,229.49" style="fill:none;stroke:rgb(23,12,12);stroke-width:1.99px;"/>
            </g>
        </g>
        <g transform="matrix(-0.040082,0.300915,-0.986729,-0.164256,472.387,176.87)">
            <g transform="matrix(-0.270517,-0.495583,1.63996,-0.066617,-319.368,491.714)">
                <path d="M401.552,296.605L399.587,290.221L395.659,295.623C397.377,294.395 400.324,294.886 401.552,296.605Z" style="fill:rgb(23,12,12);"/>
                <path d="M398.802,294.935C398.164,298.763 397.37,303.528 397.37,303.528" style="fill:none;stroke:rgb(23,12,12);stroke-width:1.99px;"/>
            </g>
        </g>
        <g transform="matrix(0.543121,0.244366,-0.187898,0.428662,132.333,87.2441)">
            <path d="M-41.674,201.445L-39.554,194.36L-38.767,194.36L-36.508,201.445L-37.34,201.445L-37.984,199.299L-40.292,199.299L-40.899,201.445L-41.674,201.445ZM-40.082,198.536L-38.21,198.536L-38.786,196.573C-38.962,195.977 -39.093,195.487 -39.178,195.104C-39.248,195.558 -39.347,196.009 -39.475,196.457L-40.082,198.536Z" style="fill:rgb(35,31,32);fill-rule:nonzero;"/>
            <path d="M-33.647,201.445L-34.324,201.445L-34.324,195.901C-34.488,196.101 -34.702,196.301 -34.966,196.501C-35.231,196.701 -35.469,196.85 -35.68,196.95L-35.68,196.109C-35.301,195.881 -34.97,195.603 -34.686,195.278C-34.402,194.952 -34.201,194.637 -34.083,194.331L-33.647,194.331L-33.647,201.445Z" style="fill:rgb(35,31,32);fill-rule:nonzero;"/>
            <path d="M-31.866,195.288L-31.866,194.451L-28.292,194.451L-28.292,195.128C-28.644,195.608 -28.992,196.246 -29.337,197.042C-29.682,197.838 -29.949,198.657 -30.137,199.498C-30.273,200.09 -30.359,200.74 -30.397,201.445L-31.094,201.445C-31.086,200.888 -31.001,200.214 -30.838,199.425C-30.675,198.636 -30.44,197.874 -30.135,197.141C-29.83,196.408 -29.506,195.79 -29.162,195.288L-31.866,195.288Z" style="fill:rgb(35,31,32);fill-rule:nonzero;"/>
            <path d="M-25.449,201.445L-25.449,199.749L-27.844,199.749L-27.844,198.951L-25.325,194.36L-24.772,194.36L-24.772,198.951L-24.026,198.951L-24.026,199.749L-24.772,199.749L-24.772,201.445L-25.449,201.445ZM-25.449,198.951L-25.449,195.756L-27.178,198.951L-25.449,198.951Z" style="fill:rgb(35,31,32);fill-rule:nonzero;"/>
        </g>
        <g transform="matrix(0.57112,0.113238,-0.0967348,0.500791,205.626,110.687)">
            <path d="M-41.865,200.872L-39.7,194.359L-38.897,194.359L-36.59,200.872L-37.44,200.872L-38.097,198.9L-40.454,198.9L-41.073,200.872L-41.865,200.872ZM-40.239,198.198L-38.328,198.198L-38.916,196.394C-39.095,195.846 -39.229,195.396 -39.316,195.043C-39.388,195.461 -39.489,195.876 -39.62,196.287L-40.239,198.198Z" style="fill:rgb(35,31,32);fill-rule:nonzero;"/>
            <path d="M-33.668,200.872L-34.36,200.872L-34.36,195.776C-34.526,195.96 -34.745,196.144 -35.015,196.327C-35.286,196.511 -35.529,196.649 -35.744,196.74L-35.744,195.967C-35.357,195.757 -35.018,195.502 -34.729,195.203C-34.439,194.904 -34.234,194.614 -34.114,194.333L-33.668,194.333L-33.668,200.872Z" style="fill:rgb(35,31,32);fill-rule:nonzero;"/>
            <path d="M-31.849,195.212L-31.849,194.444L-28.2,194.444L-28.2,195.066C-28.559,195.507 -28.914,196.093 -29.267,196.825C-29.619,197.556 -29.892,198.309 -30.084,199.082C-30.222,199.627 -30.311,200.223 -30.349,200.872L-31.061,200.872C-31.053,200.36 -30.966,199.741 -30.799,199.015C-30.633,198.289 -30.394,197.59 -30.082,196.916C-29.771,196.242 -29.439,195.674 -29.088,195.212L-31.849,195.212Z" style="fill:rgb(35,31,32);fill-rule:nonzero;"/>
            <path d="M-25.297,200.872L-25.297,199.313L-27.742,199.313L-27.742,198.58L-25.17,194.359L-24.605,194.359L-24.605,198.58L-23.844,198.58L-23.844,199.313L-24.605,199.313L-24.605,200.872L-25.297,200.872ZM-25.297,198.58L-25.297,195.643L-27.062,198.58L-25.297,198.58Z" style="fill:rgb(35,31,32);fill-rule:nonzero;"/>
        </g>
    </g>
    <g id="Arrows">
    </g>
    <g id="one.afdesign" transform="matrix(0.900227,0,0,0.90377,379.564,283.911)">
        <g transform="matrix(1,0,0,1,-10.881,-10.881)">
            <clipPath id="_clip7">
                <rect x="0" y="0" width="21.762" height="21.762"/>
            </clipPath>
            <g clip-path="url(#_clip7)">
                <g transform="matrix(1,0,0,1,-53.1749,-111.265)">
                    <circle cx="64.056" cy="122.146" r="10.881" style="fill:rgb(10,13,16);"/>
                </g>
                <g transform="matrix(1,0,0,1,-50.4683,-159.906)">
                    <text x="57.454px" y="175.494px" style="font-family:'Arial-Black', 'Arial Black', sans-serif;font-weight:900;font-size:12px;fill:rgb(254,249,250);">1</text>
                </g>
            </g>
        </g>
    </g>
    <g id="two.afdesign" transform="matrix(0.912074,0,0,0.915663,472.045,176.313)">
        <g transform="matrix(1,0,0,1,-10.881,-10.881)">
            <clipPath id="_clip8">
                <rect x="0" y="0" width="21.762" height="21.762"/>
            </clipPath>
            <g clip-path="url(#_clip8)">
                <g transform="matrix(1,0,0,1,-53.1749,-111.265)">
                    <circle cx="64.056" cy="122.146" r="10.881" style="fill:rgb(10,13,16);"/>
                </g>
                <g transform="matrix(1,0,0,1,-50.5526,-159.906)">
                    <text x="57.454px" y="175.494px" style="font-family:'Arial-Black', 'Arial Black', sans-serif;font-weight:900;font-size:12px;fill:rgb(254,249,250);">2</text>
                </g>
            </g>
        </g>
    </g>
    <g id="three.afdesign" transform="matrix(0.912074,0,0,0.915663,373.398,122.073)">
        <g transform="matrix(1,0,0,1,-10.881,-10.881)">
            <clipPath id="_clip9">
                <rect x="0" y="0" width="21.762" height="21.762"/>
            </clipPath>
            <g clip-path="url(#_clip9)">
                <g transform="matrix(1,0,0,1,-53.1749,-111.265)">
                    <circle cx="64.056" cy="122.146" r="10.881" style="fill:rgb(10,13,16);"/>
                </g>
                <g transform="matrix(1,0,0,1,-50.4436,-159.906)">
                    <text x="57.402px" y="175.494px" style="font-family:'Arial-Black', 'Arial Black', sans-serif;font-weight:900;font-size:12px;fill:rgb(254,249,250);">3</text>
                </g>
            </g>
        </g>
    </g>
</svg>
